HIERARCHY
ROOT Hips
{
	OFFSET -0.001795 -0.223333 0.028219
	CHANNELS 6 Xposition Yposition Zposition Zrotation Yrotation Xrotation 
	JOINT LeftUpLeg
	{
		OFFSET 0.069520 -0.091406 -0.006815
		CHANNELS 3 Zrotation Yrotation Xrotation
		JOINT LeftLeg
		{
			OFFSET 0.034277 -0.375199 -0.004496
			CHANNELS 3 Zrotation Yrotation Xrotation
			JOINT LeftFoot
			{
				OFFSET -0.013596 -0.397961 -0.043693
				CHANNELS 3 Zrotation Yrotation Xrotation
				JOINT LeftToe
				{
					OFFSET 0.026358 -0.055791 0.119288
					CHANNELS 3 Zrotation Yrotation Xrotation
					End Site
					{
						OFFSET 0.000000 0.000000 0.000000
					}
				}
			}
		}
	}
	JOINT RightUpLeg
	{
		OFFSET -0.067670 -0.090522 -0.004320
		CHANNELS 3 Zrotation Yrotation Xrotation
		JOINT RightLeg
		{
			OFFSET -0.038290 -0.382569 -0.008850
			CHANNELS 3 Zrotation Yrotation Xrotation
			JOINT RightFoot
			{
				OFFSET 0.015774 -0.398415 -0.042312
				CHANNELS 3 Zrotation Yrotation Xrotation
				JOINT RightToe
				{
					OFFSET -0.025372 -0.048144 0.123348
					CHANNELS 3 Zrotation Yrotation Xrotation
					End Site
					{
						OFFSET 0.000000 0.000000 0.000000
					}
				}
			}
		}
	}
	JOINT Spine
	{
		OFFSET -0.002533 0.108963 -0.026696
		CHANNELS 3 Zrotation Yrotation Xrotation
		JOINT Spine1
		{
			OFFSET 0.005487 0.135180 0.001092
			CHANNELS 3 Zrotation Yrotation Xrotation
			JOINT Spine2
			{
				OFFSET 0.001457 0.052922 0.025425
				CHANNELS 3 Zrotation Yrotation Xrotation
				JOINT Neck
				{
					OFFSET -0.002778 0.213870 -0.042857
					CHANNELS 3 Zrotation Yrotation Xrotation
					JOINT Head
					{
						OFFSET 0.005152 0.064970 0.051349
						CHANNELS 3 Zrotation Yrotation Xrotation
						End Site
						{
							OFFSET 0.000000 0.000000 0.000000
						}
					}
				}
				JOINT LeftShoulder
				{
					OFFSET 0.078845 0.121749 -0.034090
					CHANNELS 3 Zrotation Yrotation Xrotation
					JOINT LeftArm
					{
						OFFSET 0.090977 0.030469 -0.008868
						CHANNELS 3 Zrotation Yrotation Xrotation
						JOINT LeftForeArm
						{
							OFFSET 0.259612 -0.012772 -0.027456
							CHANNELS 3 Zrotation Yrotation Xrotation
							JOINT LeftHand
							{
								OFFSET 0.249234 0.008986 -0.001171
								CHANNELS 3 Zrotation Yrotation Xrotation
								End Site
								{
									OFFSET 0.000000 0.000000 0.000000
								}
							}
						}
					}
				}
				JOINT RightShoulder
				{
					OFFSET -0.081759 0.118833 -0.038615
					CHANNELS 3 Zrotation Yrotation Xrotation
					JOINT RightArm
					{
						OFFSET -0.096012 0.032551 -0.009143
						CHANNELS 3 Zrotation Yrotation Xrotation
						JOINT RightForeArm
						{
							OFFSET -0.253742 -0.013329 -0.021401
							CHANNELS 3 Zrotation Yrotation Xrotation
							JOINT RightHand
							{
								OFFSET -0.255298 0.007772 -0.005559
								CHANNELS 3 Zrotation Yrotation Xrotation
								End Site
								{
									OFFSET 0.000000 0.000000 0.000000
								}
							}
						}
					}
				}
			}
		}
	}
}
MOTION
Frames: 8
Frame Time: 0.050000
-0.031933 0.944237 0.089542 -5.103974 37.701981 12.689958 16.845978 -3.462742 -31.568190 -0.247296 -0.910978 11.599065 -8.151145 -8.435813 9.063078 0.000000 0.000000 0.000000 2.263069 0.452259 -28.679765 -3.045994 0.447937 10.210214 -2.780996 -4.900376 16.718821 0.000000 0.000000 0.000000 -0.396834 -2.965572 23.640737 -0.931868 0.715949 -4.685367 -8.935579 8.288516 11.435651 9.269011 -9.911886 4.429702 0.000000 0.000000 0.000000 -0.730317 13.215679 -5.045553 -49.835795 -3.628549 -6.631444 -168.822138 -46.835209 146.510919 0.000000 0.000000 0.000000 6.910256 -19.703669 -8.130387 45.054069 -18.536197 -8.018510 139.415750 49.153766 127.888653 0.000000 0.000000 0.000000 
-0.031533 0.944743 0.091524 -5.637926 38.890776 12.850009 17.532116 -3.644055 -32.363081 -0.143989 -0.943712 11.666091 -8.762899 -9.470631 9.279147 0.000000 0.000000 0.000000 2.663126 0.390364 -29.367490 -2.812107 0.349986 10.772755 -3.474912 -5.921223 17.224871 0.000000 0.000000 0.000000 -1.011322 -2.980350 24.117589 -1.103092 0.844346 -5.323254 -8.491674 8.503080 12.121262 9.001648 -9.867319 4.730987 0.000000 0.000000 0.000000 0.401046 15.174444 -5.130734 -51.243889 -3.489234 -7.395340 -168.135459 -45.820819 144.747617 0.000000 0.000000 0.000000 5.978407 -20.972652 -8.777866 45.384660 -18.824435 -7.874968 140.088007 48.850773 129.423087 0.000000 0.000000 0.000000 
-0.030643 0.945123 0.092974 -5.971949 40.553346 13.062600 17.905815 -3.965591 -33.457801 -0.048896 -0.991806 11.801958 -9.582483 -10.424840 9.949258 0.000000 0.000000 0.000000 2.621442 0.132697 -30.137903 -2.275462 0.144584 11.453419 -4.371275 -7.147303 18.185550 0.000000 0.000000 0.000000 -1.445290 -3.032143 24.393253 -0.837529 0.764037 -5.475206 -8.446133 8.557242 12.508422 7.895529 -9.232370 5.466077 0.000000 0.000000 0.000000 0.817780 16.945047 -5.510406 -52.303951 -3.547130 -7.891574 -168.460348 -45.030441 145.672394 0.000000 0.000000 0.000000 5.779293 -21.953979 -9.268179 45.828035 -19.417208 -7.905168 141.117103 49.277452 132.411909 0.000000 0.000000 0.000000 
-0.029509 0.944689 0.093523 -6.459029 41.940690 13.307329 18.281163 -4.323315 -34.906847 -0.084705 -1.117378 12.711880 -9.496924 -10.538799 9.712694 0.000000 0.000000 0.000000 2.674761 -0.096400 -30.959172 -1.546290 -0.155009 12.520569 -5.142744 -8.355674 17.445104 0.000000 0.000000 0.000000 -1.757294 -3.080019 24.577388 -1.758265 1.115657 -5.706204 -7.424697 8.817681 13.072532 7.413268 -8.757241 5.377573 0.000000 0.000000 0.000000 1.316452 18.528248 -5.815293 -53.497464 -3.423813 -8.528112 -168.108786 -44.655615 145.102715 0.000000 0.000000 0.000000 5.021418 -23.104477 -9.851404 47.061000 -20.299462 -8.010717 142.091706 50.008647 135.559411 0.000000 0.000000 0.000000 
-0.028325 0.943920 0.092977 -6.649093 43.379323 13.555899 18.840635 -4.707905 -36.404396 -0.858343 -1.133677 13.560563 -9.671628 -10.610348 10.027686 0.000000 0.000000 0.000000 2.457617 -0.495531 -32.125440 -0.958299 -0.494264 14.030309 -5.881400 -9.435798 17.630701 0.000000 0.000000 0.000000 -2.257466 -3.230842 25.381252 -1.413881 1.030434 -6.067509 -7.438117 9.581809 13.613312 6.744202 -8.468293 5.871120 0.000000 0.000000 0.000000 0.798812 19.376464 -6.477268 -53.958053 -3.853481 -8.581784 -168.983288 -44.246071 147.455159 0.000000 0.000000 0.000000 5.229880 -23.296936 -9.937473 48.696399 -20.862060 -8.218519 141.912826 51.471415 137.885399 0.000000 0.000000 0.000000 
-0.027458 0.942031 0.091573 -6.766315 44.732281 14.598547 19.537059 -5.220976 -38.708290 -1.385240 -1.235299 14.832529 -9.422202 -10.885729 9.465037 0.000000 0.000000 0.000000 2.011582 -1.181921 -34.434601 -0.017282 -1.018763 15.989560 -6.369420 -10.171695 17.771923 0.000000 0.000000 0.000000 -2.557764 -3.396953 26.009888 -1.838689 1.238947 -6.827336 -6.722257 10.668910 14.769936 7.331881 -8.217739 4.218123 0.000000 0.000000 0.000000 0.789208 20.257844 -6.971380 -55.181551 -4.641003 -8.851781 -168.689619 -43.488549 146.877462 0.000000 0.000000 0.000000 4.409390 -24.415100 -10.539017 50.985088 -21.637206 -8.197063 141.078940 52.332649 138.760085 0.000000 0.000000 0.000000 
-0.026556 0.939078 0.090093 -6.965838 45.868314 15.292592 21.008899 -5.680610 -41.180345 -3.082202 -1.177122 16.359285 -9.202297 -10.454110 9.643097 0.000000 0.000000 0.000000 2.057865 -1.770084 -36.642997 0.270470 -1.486650 18.623191 -6.681795 -10.819745 16.852309 0.000000 0.000000 0.000000 -3.126509 -3.606198 27.111543 -1.751889 1.212362 -6.921546 -6.448415 11.544520 15.376715 7.297200 -8.032092 3.832710 0.000000 0.000000 0.000000 -0.246317 21.278913 -8.124361 -55.234503 -4.861747 -8.707540 -169.521142 -43.572204 149.596143 0.000000 0.000000 0.000000 4.312520 -24.175196 -10.417398 53.190266 -21.787146 -8.268437 140.192713 53.983736 139.924440 0.000000 0.000000 0.000000 
-0.025273 0.934382 0.089157 -6.979254 46.837795 16.516038 22.412873 -6.195879 -44.103362 -4.550147 -1.149403 18.117730 -8.647525 -9.861216 9.370912 0.000000 0.000000 0.000000 1.606380 -2.657649 -39.197743 1.006609 -2.149505 21.184994 -6.414273 -10.585265 15.595902 0.000000 0.000000 0.000000 -3.670046 -3.789389 28.111470 -2.122295 1.308998 -6.826498 -5.857953 12.770139 15.679129 7.671671 -7.746695 2.617298 0.000000 0.000000 0.000000 -2.269254 21.370666 -9.704863 -54.772735 -5.272652 -8.053888 -170.538171 -43.633781 152.708208 0.000000 0.000000 0.000000 3.275690 -24.990458 -10.882687 55.715129 -22.223116 -7.997230 140.028714 55.240418 141.717188 0.000000 0.000000 0.000000 
